<svg xmlns="http://www.w3.org/2000/svg" width="128" height="128" viewBox="0 0 128 128">
  <title>JOYSTICK</title>
  <g>
    <g>
      <path d="M59.44,66.48V57.96L20.21,75.07A1.979,1.979,0,0,0,19,76.91a1.956,1.956,0,0,0,1.21,1.83l9.37,4.09,13.56,5.91,17.88,7.8a7.444,7.444,0,0,0,5.96,0l17.88-7.8,13.56-5.91,9.37-4.09A1.956,1.956,0,0,0,109,76.91a1.979,1.979,0,0,0-1.21-1.84L69.05,58.17v8.42c4.94,1.19,8.68,4.09,9.68,7.65a6.579,6.579,0,0,1,.28,1.93,4.526,4.526,0,0,1-.05.74c-.55,5.27-7.04,9.42-14.96,9.42s-14.41-4.15-14.96-9.42a4.526,4.526,0,0,1-.05-.74,6.579,6.579,0,0,1,.28-1.93C50.3,70.56,54.26,67.6,59.44,66.48Z" fill="#ffb703"/>
      <path d="M49.27,74.24a6.579,6.579,0,0,0-.28,1.93,4.526,4.526,0,0,0,.05.74c.55,5.27,7.04,9.42,14.96,9.42s14.41-4.15,14.96-9.42a4.526,4.526,0,0,0,.05-.74,6.579,6.579,0,0,0-.28-1.93c-1-3.56-4.74-6.46-9.68-7.65v7.05a3.269,3.269,0,0,1-3.26,3.27H62.7a3.269,3.269,0,0,1-3.26-3.27V66.48C54.26,67.6,50.3,70.56,49.27,74.24Z" fill="#219ebc"/>
      <path d="M65.79,76.91a3.269,3.269,0,0,0,3.26-3.27V44.06A13.042,13.042,0,0,1,64,45.07a13.255,13.255,0,0,1-4.56-.81V73.64a3.269,3.269,0,0,0,3.26,3.27Z" fill="#fcf8de"/>
      <path d="M64,45.07a13.042,13.042,0,0,0,5.05-1.01A13.182,13.182,0,1,0,64,45.07Z" fill="#e03f3f"/>
      <path d="M61.02,108.38a7.444,7.444,0,0,0,5.96,0l40.81-17.8A1.969,1.969,0,0,0,109,88.74V76.91a1.956,1.956,0,0,1-1.21,1.83l-9.37,4.09L84.86,88.74l-17.88,7.8a7.444,7.444,0,0,1-5.96,0l-17.88-7.8L29.58,82.83l-9.37-4.09A1.956,1.956,0,0,1,19,76.91V88.74a1.969,1.969,0,0,0,1.21,1.84Z" fill="#fb8500"/>
    </g>
    <g>
      <path d="M19.516,73.463A3.705,3.705,0,0,0,17.25,76.91V88.74a3.7,3.7,0,0,0,2.26,3.444l40.809,17.8a9.22,9.22,0,0,0,7.361,0l10.561-4.607a1.75,1.75,0,0,0-1.4-3.208l-10.562,4.607a5.714,5.714,0,0,1-4.559,0L20.9,88.974a.225.225,0,0,1-.154-.234V80.885L60.319,98.144a9.225,9.225,0,0,0,7.361,0l39.57-17.259V88.74a.227.227,0,0,1-.16.236l-5.448,2.376a1.75,1.75,0,0,0,1.4,3.208l5.442-2.374a3.7,3.7,0,0,0,2.266-3.446V76.91a3.7,3.7,0,0,0-2.26-3.444L70.8,57.024V45.176a14.926,14.926,0,1,0-13.11.243v11.4Zm87.58,3.213a.232.232,0,0,1,.154.234.217.217,0,0,1-.16.226l-40.811,17.8a5.706,5.706,0,0,1-4.559,0L20.9,77.134a.215.215,0,0,1-.154-.224.234.234,0,0,1,.16-.236L57.69,60.632v4.483c-5.19,1.483-9,4.714-10.093,8.612a8.321,8.321,0,0,0-.357,2.443,6.347,6.347,0,0,0,.065.972C47.992,83.381,55.157,88.08,64,88.08s16.008-4.7,16.695-10.938a6.347,6.347,0,0,0,.065-.972,8.252,8.252,0,0,0-.345-2.4C79.35,69.976,75.722,66.8,70.8,65.258V60.843ZM52.57,31.89a11.43,11.43,0,1,1,15.8,10.556l-.006,0A11.42,11.42,0,0,1,52.57,31.89ZM67.3,46.438v27.2a1.517,1.517,0,0,1-1.51,1.52H62.7a1.517,1.517,0,0,1-1.51-1.52V46.547a14.515,14.515,0,0,0,6.11-.109ZM62.7,78.66h3.09a5.021,5.021,0,0,0,5.01-5.02V68.98c3.243,1.251,5.573,3.338,6.257,5.773a4.853,4.853,0,0,1,.2,1.417,2.828,2.828,0,0,1-.026.453q-.009.052-.015.1C76.76,81.131,70.954,84.58,64,84.58s-12.76-3.449-13.219-7.852q-.006-.052-.015-.1a2.828,2.828,0,0,1-.026-.453,4.936,4.936,0,0,1,.215-1.458c.7-2.5,3.254-4.692,6.735-5.919V73.64A5.021,5.021,0,0,0,62.7,78.66Z" fill="#022a5b"/>
      <path d="M90.314,99.953a1.754,1.754,0,0,0,.7-.146l1.014-.443a1.75,1.75,0,1,0-1.4-3.208l-1.014.443a1.75,1.75,0,0,0,.7,3.354Z" fill="#022a5b"/>
    </g>
  </g>
</svg>
